<?xml version="1.0" standalone="no"?>
<!DOCTYPE svg PUBLIC "-//W3C//DTD SVG 20010904//EN"
 "http://www.w3.org/TR/2001/REC-SVG-20010904/DTD/svg10.dtd">
<svg version="1.0" xmlns="http://www.w3.org/2000/svg"
 width="592.000000pt" height="302.000000pt" viewBox="0 0 592.000000 302.000000"
 preserveAspectRatio="xMidYMid meet">

<g transform="translate(0.000000,302.000000) scale(0.100000,-0.100000)"
fill="#000000" stroke="none">
<path d="M60 1500 l0 -1470 2920 0 2920 0 0 1470 0 1470 -2920 0 -2920 0 0
-1470z m5780 0 l0 -1410 -2860 0 -2860 0 0 1410 0 1410 2860 0 2860 0 0 -1410z"/>
<path d="M260 1500 l0 -1270 2720 0 2720 0 0 1270 0 1270 -2720 0 -2720 0 0
-1270z m5374 1169 l26 -20 0 -1167 0 -1166 -22 -23 -21 -23 -2614 0 -2614 0
-24 25 -25 24 0 1161 0 1161 25 24 24 25 2609 0 2609 0 27 -21z"/>
<path d="M392 2638 c-19 -19 -17 -2301 2 -2317 10 -8 700 -10 2617 -9 l2604 3
3 1154 c1 844 -1 1157 -9 1167 -16 19 -5198 21 -5217 2z m1026 -225 l-3 -156
-85 -19 c-47 -9 -95 -20 -108 -23 l-22 -5 2 -712 3 -712 80 -16 c44 -9 92 -20
108 -23 l27 -7 0 -155 0 -155 -480 0 -480 0 0 155 c0 152 0 155 23 160 12 3
60 13 107 23 l85 18 3 712 2 711 -37 10 c-21 5 -54 12 -73 16 -19 4 -52 11
-72 16 l-38 10 0 154 0 155 480 0 481 0 -3 -157z m1209 147 c340 -25 573 -141
666 -332 60 -123 73 -286 33 -413 -35 -112 -135 -232 -226 -271 l-35 -15 68
-23 c174 -62 273 -202 285 -405 12 -229 -75 -422 -238 -526 -128 -82 -257
-120 -454 -135 -72 -5 -371 -10 -663 -10 l-533 0 0 155 c0 152 0 155 23 160
12 3 60 13 107 23 l85 18 3 712 2 711 -37 10 c-21 5 -54 12 -73 16 -19 4 -52
11 -72 16 l-38 10 0 154 0 155 478 0 c262 0 541 -5 619 -10z m2098 -13 c349
-78 617 -327 718 -667 39 -131 51 -222 51 -385 -1 -235 -34 -382 -127 -558
-109 -210 -295 -371 -517 -449 -138 -48 -163 -50 -767 -55 l-573 -5 0 156 0
155 38 10 c20 6 72 18 115 28 l77 16 -2 706 -3 705 -75 18 c-41 11 -92 23
-112 29 l-38 10 0 155 0 156 573 -5 c468 -4 585 -7 642 -20z"/>
<path d="M2270 1925 l0 -248 158 6 c181 8 258 23 316 64 61 42 88 102 84 183
-6 113 -63 187 -169 216 -32 9 -122 17 -221 21 l-168 6 0 -248z"/>
<path d="M2270 1086 l0 -256 198 0 c266 0 338 20 402 110 44 61 43 198 -2 288
-18 37 -35 53 -78 77 l-55 30 -232 3 -233 4 0 -256z"/>
<path d="M4260 1500 l0 -670 148 0 c92 0 166 5 198 14 167 44 280 172 336 378
20 73 23 106 23 278 0 172 -3 205 -23 278 -30 110 -69 187 -131 253 -95 105
-197 139 -418 139 l-133 0 0 -670z"/>
</g>
</svg>
